<mxfile host="Electron" modified="2024-06-24T15:01:19.542Z" agent="Mozilla/5.0 (Macintosh; Intel Mac OS X 10_15_7) AppleWebKit/537.36 (KHTML, like Gecko) draw.io/22.1.21 Chrome/120.0.6099.109 Electron/28.1.0 Safari/537.36" etag="xaMfDK4R5agREVWIyB48" version="22.1.21" type="device">
  <diagram name="Страница — 1" id="JYl9KfBzlWvNjk4mcSm3">
    <mxGraphModel dx="1189" dy="878" grid="1" gridSize="10" guides="1" tooltips="1" connect="1" arrows="1" fold="1" page="1" pageScale="1" pageWidth="827" pageHeight="1169" math="0" shadow="0">
      <root>
        <mxCell id="0" />
        <mxCell id="1" parent="0" />
        <mxCell id="RdmqOYUsalkGnb_kSB8j-1" value="&lt;h1 style=&quot;transition: opacity 0.2s ease-in-out 0s, color 0.2s ease-in-out 0s, text-decoration 0.2s ease-in-out 0s, background-color 0.2s ease-in-out 0s, -webkit-text-decoration 0.2s ease-in-out 0s; font-size: 1.25rem; margin: 0px; quotes: &amp;quot;«&amp;quot; &amp;quot;»&amp;quot;; line-height: 1.625rem; -webkit-font-smoothing: antialiased; font-family: &amp;quot;Fira Sans&amp;quot;, sans-serif; font-weight: 500; padding: 0px; caret-color: rgb(51, 51, 51); color: rgb(51, 51, 51); text-align: start;&quot;&gt;&lt;code style=&quot;transition: opacity 0.2s ease-in-out 0s, color 0.2s ease-in-out 0s, text-decoration 0.2s ease-in-out 0s, background-color 0.2s ease-in-out 0s, -webkit-text-decoration 0.2s ease-in-out 0s; font-family: &amp;quot;Fira Sans&amp;quot;, sans-serif; font-size: 0.9375rem; quotes: &amp;quot;«&amp;quot; &amp;quot;»&amp;quot;; background-color: rgb(247, 247, 247); border-radius: 4px; overflow-wrap: break-word; padding: 3px 6px; -webkit-font-smoothing: antialiased;&quot;&gt;MainScene&lt;/code&gt;&lt;/h1&gt;" style="verticalLabelPosition=middle;verticalAlign=middle;html=1;shape=mxgraph.basic.patternFillRect;fillStyle=diag;step=5;fillStrokeWidth=0.2;fillStrokeColor=#dddddd;sketch=1;curveFitting=1;jiggle=2;perimeterSpacing=0;strokeWidth=1;align=center;horizontal=1;labelPosition=center;" parent="1" vertex="1">
          <mxGeometry x="80" y="200" width="160" height="80" as="geometry" />
        </mxCell>
        <mxCell id="RdmqOYUsalkGnb_kSB8j-2" value="&lt;h1 style=&quot;transition: opacity 0.2s ease-in-out 0s, color 0.2s ease-in-out 0s, text-decoration 0.2s ease-in-out 0s, background-color 0.2s ease-in-out 0s, -webkit-text-decoration 0.2s ease-in-out 0s; font-size: 1.25rem; margin: 0px; quotes: &amp;quot;«&amp;quot; &amp;quot;»&amp;quot;; line-height: 1.625rem; -webkit-font-smoothing: antialiased; font-family: &amp;quot;Fira Sans&amp;quot;, sans-serif; font-weight: 500; padding: 0px; caret-color: rgb(51, 51, 51); color: rgb(51, 51, 51); text-align: start;&quot;&gt;&lt;code style=&quot;transition: opacity 0.2s ease-in-out 0s, color 0.2s ease-in-out 0s, text-decoration 0.2s ease-in-out 0s, background-color 0.2s ease-in-out 0s, -webkit-text-decoration 0.2s ease-in-out 0s; font-family: &amp;quot;Fira Sans&amp;quot;, sans-serif; font-size: 0.9375rem; quotes: &amp;quot;«&amp;quot; &amp;quot;»&amp;quot;; background-color: rgb(247, 247, 247); border-radius: 4px; overflow-wrap: break-word; padding: 3px 6px; -webkit-font-smoothing: antialiased;&quot;&gt;DetailScene&lt;/code&gt;&lt;/h1&gt;" style="verticalLabelPosition=middle;verticalAlign=middle;html=1;shape=mxgraph.basic.patternFillRect;fillStyle=diag;step=5;fillStrokeWidth=0.2;fillStrokeColor=#dddddd;sketch=1;curveFitting=1;jiggle=2;perimeterSpacing=0;strokeWidth=1;align=center;horizontal=1;labelPosition=center;" parent="1" vertex="1">
          <mxGeometry x="80" y="360" width="160" height="80" as="geometry" />
        </mxCell>
        <mxCell id="RdmqOYUsalkGnb_kSB8j-6" value="&lt;h1 style=&quot;transition: opacity 0.2s ease-in-out 0s, color 0.2s ease-in-out 0s, text-decoration 0.2s ease-in-out 0s, background-color 0.2s ease-in-out 0s, -webkit-text-decoration 0.2s ease-in-out 0s; font-size: 1.25rem; margin: 0px; quotes: &amp;quot;«&amp;quot; &amp;quot;»&amp;quot;; line-height: 1.625rem; -webkit-font-smoothing: antialiased; font-family: &amp;quot;Fira Sans&amp;quot;, sans-serif; font-weight: 500; padding: 0px; caret-color: rgb(51, 51, 51); color: rgb(51, 51, 51); text-align: start;&quot;&gt;&lt;code style=&quot;transition: opacity 0.2s ease-in-out 0s, color 0.2s ease-in-out 0s, text-decoration 0.2s ease-in-out 0s, background-color 0.2s ease-in-out 0s, -webkit-text-decoration 0.2s ease-in-out 0s; font-family: &amp;quot;Fira Sans&amp;quot;, sans-serif; font-size: 0.9375rem; quotes: &amp;quot;«&amp;quot; &amp;quot;»&amp;quot;; background-color: rgb(247, 247, 247); border-radius: 4px; overflow-wrap: break-word; padding: 3px 6px; -webkit-font-smoothing: antialiased;&quot;&gt;GetImagesUseCase&lt;/code&gt;&lt;/h1&gt;" style="verticalLabelPosition=middle;verticalAlign=middle;html=1;shape=mxgraph.basic.patternFillRect;fillStyle=diag;step=5;fillStrokeWidth=0.2;fillStrokeColor=#dddddd;sketch=1;curveFitting=1;jiggle=2;perimeterSpacing=0;strokeWidth=1;align=center;horizontal=1;labelPosition=center;" parent="1" vertex="1">
          <mxGeometry x="320" y="200" width="160" height="80" as="geometry" />
        </mxCell>
        <mxCell id="RdmqOYUsalkGnb_kSB8j-7" value="&lt;h1 style=&quot;transition: opacity 0.2s ease-in-out 0s, color 0.2s ease-in-out 0s, text-decoration 0.2s ease-in-out 0s, background-color 0.2s ease-in-out 0s, -webkit-text-decoration 0.2s ease-in-out 0s; font-size: 1.25rem; margin: 0px; quotes: &amp;quot;«&amp;quot; &amp;quot;»&amp;quot;; line-height: 1.625rem; -webkit-font-smoothing: antialiased; font-family: &amp;quot;Fira Sans&amp;quot;, sans-serif; font-weight: 500; padding: 0px; caret-color: rgb(51, 51, 51); color: rgb(51, 51, 51); text-align: start;&quot;&gt;&lt;code style=&quot;transition: opacity 0.2s ease-in-out 0s, color 0.2s ease-in-out 0s, text-decoration 0.2s ease-in-out 0s, background-color 0.2s ease-in-out 0s, -webkit-text-decoration 0.2s ease-in-out 0s; font-family: &amp;quot;Fira Sans&amp;quot;, sans-serif; font-size: 0.9375rem; quotes: &amp;quot;«&amp;quot; &amp;quot;»&amp;quot;; background-color: rgb(247, 247, 247); border-radius: 4px; overflow-wrap: break-word; padding: 3px 6px; -webkit-font-smoothing: antialiased;&quot;&gt;ImagesDataService&lt;/code&gt;&lt;/h1&gt;" style="verticalLabelPosition=middle;verticalAlign=middle;html=1;shape=mxgraph.basic.patternFillRect;fillStyle=diag;step=5;fillStrokeWidth=0.2;fillStrokeColor=#dddddd;sketch=1;curveFitting=1;jiggle=2;perimeterSpacing=0;strokeWidth=1;align=center;horizontal=1;labelPosition=center;" parent="1" vertex="1">
          <mxGeometry x="600" y="200" width="160" height="80" as="geometry" />
        </mxCell>
        <mxCell id="RdmqOYUsalkGnb_kSB8j-13" value="GetImagesShortData()" style="rounded=1;whiteSpace=wrap;html=1;sketch=1;curveFitting=1;jiggle=2;glass=0;shadow=0;" parent="1" vertex="1">
          <mxGeometry x="360" y="280" width="160" height="40" as="geometry" />
        </mxCell>
        <mxCell id="RdmqOYUsalkGnb_kSB8j-15" value="UpdateImagesShortData()" style="rounded=1;whiteSpace=wrap;html=1;sketch=1;curveFitting=1;jiggle=2;glass=0;shadow=0;" parent="1" vertex="1">
          <mxGeometry x="360" y="320" width="160" height="40" as="geometry" />
        </mxCell>
        <mxCell id="RdmqOYUsalkGnb_kSB8j-16" value="GetImagePreview(id)" style="rounded=1;whiteSpace=wrap;html=1;sketch=1;curveFitting=1;jiggle=2;glass=0;shadow=0;" parent="1" vertex="1">
          <mxGeometry x="360" y="360" width="160" height="40" as="geometry" />
        </mxCell>
        <mxCell id="RdmqOYUsalkGnb_kSB8j-26" value="Load(pageNumber)" style="rounded=1;whiteSpace=wrap;html=1;sketch=1;curveFitting=1;jiggle=2;glass=0;shadow=0;" parent="1" vertex="1">
          <mxGeometry x="640" y="280" width="160" height="40" as="geometry" />
        </mxCell>
        <mxCell id="RdmqOYUsalkGnb_kSB8j-27" value="GetImage(id)" style="rounded=1;whiteSpace=wrap;html=1;sketch=1;curveFitting=1;jiggle=2;glass=0;shadow=0;" parent="1" vertex="1">
          <mxGeometry x="360" y="400" width="160" height="40" as="geometry" />
        </mxCell>
        <mxCell id="RdmqOYUsalkGnb_kSB8j-28" value="&lt;h1 style=&quot;transition: opacity 0.2s ease-in-out 0s, color 0.2s ease-in-out 0s, text-decoration 0.2s ease-in-out 0s, background-color 0.2s ease-in-out 0s, -webkit-text-decoration 0.2s ease-in-out 0s; font-size: 1.25rem; margin: 0px; quotes: &amp;quot;«&amp;quot; &amp;quot;»&amp;quot;; line-height: 1.625rem; -webkit-font-smoothing: antialiased; font-family: &amp;quot;Fira Sans&amp;quot;, sans-serif; font-weight: 500; padding: 0px; caret-color: rgb(51, 51, 51); color: rgb(51, 51, 51); text-align: start;&quot;&gt;&lt;code style=&quot;transition: opacity 0.2s ease-in-out 0s, color 0.2s ease-in-out 0s, text-decoration 0.2s ease-in-out 0s, background-color 0.2s ease-in-out 0s, -webkit-text-decoration 0.2s ease-in-out 0s; font-family: &amp;quot;Fira Sans&amp;quot;, sans-serif; font-size: 0.9375rem; quotes: &amp;quot;«&amp;quot; &amp;quot;»&amp;quot;; background-color: rgb(247, 247, 247); border-radius: 4px; overflow-wrap: break-word; padding: 3px 6px; -webkit-font-smoothing: antialiased;&quot;&gt;ImageService&lt;/code&gt;&lt;/h1&gt;" style="verticalLabelPosition=middle;verticalAlign=middle;html=1;shape=mxgraph.basic.patternFillRect;fillStyle=diag;step=5;fillStrokeWidth=0.2;fillStrokeColor=#dddddd;sketch=1;curveFitting=1;jiggle=2;perimeterSpacing=0;strokeWidth=1;align=center;horizontal=1;labelPosition=center;" parent="1" vertex="1">
          <mxGeometry x="600" y="360" width="160" height="80" as="geometry" />
        </mxCell>
        <mxCell id="RdmqOYUsalkGnb_kSB8j-29" value="Load(imageURL)" style="rounded=1;whiteSpace=wrap;html=1;sketch=1;curveFitting=1;jiggle=2;glass=0;shadow=0;" parent="1" vertex="1">
          <mxGeometry x="640" y="440" width="160" height="40" as="geometry" />
        </mxCell>
        <mxCell id="RdmqOYUsalkGnb_kSB8j-31" value="&lt;h1 style=&quot;transition: opacity 0.2s ease-in-out 0s, color 0.2s ease-in-out 0s, text-decoration 0.2s ease-in-out 0s, background-color 0.2s ease-in-out 0s, -webkit-text-decoration 0.2s ease-in-out 0s; font-size: 1.25rem; margin: 0px; quotes: &amp;quot;«&amp;quot; &amp;quot;»&amp;quot;; line-height: 1.625rem; -webkit-font-smoothing: antialiased; font-family: &amp;quot;Fira Sans&amp;quot;, sans-serif; font-weight: 500; padding: 0px; caret-color: rgb(51, 51, 51); color: rgb(51, 51, 51); text-align: start;&quot;&gt;&lt;code style=&quot;transition: opacity 0.2s ease-in-out 0s, color 0.2s ease-in-out 0s, text-decoration 0.2s ease-in-out 0s, background-color 0.2s ease-in-out 0s, -webkit-text-decoration 0.2s ease-in-out 0s; font-family: &amp;quot;Fira Sans&amp;quot;, sans-serif; font-size: 0.9375rem; quotes: &amp;quot;«&amp;quot; &amp;quot;»&amp;quot;; background-color: rgb(247, 247, 247); border-radius: 4px; overflow-wrap: break-word; padding: 3px 6px; -webkit-font-smoothing: antialiased;&quot;&gt;State&lt;/code&gt;&lt;/h1&gt;" style="verticalLabelPosition=middle;verticalAlign=middle;html=1;shape=mxgraph.basic.patternFillRect;fillStyle=diag;step=5;fillStrokeWidth=0.2;fillStrokeColor=#dddddd;sketch=1;curveFitting=1;jiggle=2;perimeterSpacing=0;strokeWidth=1;align=center;horizontal=1;labelPosition=center;" parent="1" vertex="1">
          <mxGeometry x="600" y="520" width="160" height="80" as="geometry" />
        </mxCell>
        <mxCell id="RdmqOYUsalkGnb_kSB8j-33" style="edgeStyle=orthogonalEdgeStyle;rounded=0;orthogonalLoop=1;jettySize=auto;html=1;entryX=0;entryY=0.5;entryDx=0;entryDy=0;entryPerimeter=0;" parent="1" source="RdmqOYUsalkGnb_kSB8j-1" target="RdmqOYUsalkGnb_kSB8j-6" edge="1">
          <mxGeometry relative="1" as="geometry" />
        </mxCell>
        <mxCell id="RdmqOYUsalkGnb_kSB8j-34" style="edgeStyle=orthogonalEdgeStyle;rounded=0;orthogonalLoop=1;jettySize=auto;html=1;entryX=0;entryY=0.5;entryDx=0;entryDy=0;entryPerimeter=0;" parent="1" source="RdmqOYUsalkGnb_kSB8j-2" target="RdmqOYUsalkGnb_kSB8j-6" edge="1">
          <mxGeometry relative="1" as="geometry" />
        </mxCell>
        <mxCell id="RdmqOYUsalkGnb_kSB8j-35" style="edgeStyle=orthogonalEdgeStyle;rounded=0;orthogonalLoop=1;jettySize=auto;html=1;entryX=1;entryY=0.5;entryDx=0;entryDy=0;entryPerimeter=0;" parent="1" source="RdmqOYUsalkGnb_kSB8j-7" target="RdmqOYUsalkGnb_kSB8j-6" edge="1">
          <mxGeometry relative="1" as="geometry" />
        </mxCell>
        <mxCell id="RdmqOYUsalkGnb_kSB8j-36" style="edgeStyle=orthogonalEdgeStyle;rounded=0;orthogonalLoop=1;jettySize=auto;html=1;entryX=1;entryY=0.5;entryDx=0;entryDy=0;entryPerimeter=0;" parent="1" source="RdmqOYUsalkGnb_kSB8j-28" target="RdmqOYUsalkGnb_kSB8j-6" edge="1">
          <mxGeometry relative="1" as="geometry" />
        </mxCell>
        <mxCell id="RdmqOYUsalkGnb_kSB8j-37" style="edgeStyle=orthogonalEdgeStyle;rounded=0;orthogonalLoop=1;jettySize=auto;html=1;entryX=1;entryY=0.5;entryDx=0;entryDy=0;entryPerimeter=0;" parent="1" source="RdmqOYUsalkGnb_kSB8j-31" target="RdmqOYUsalkGnb_kSB8j-6" edge="1">
          <mxGeometry relative="1" as="geometry" />
        </mxCell>
        <mxCell id="RdmqOYUsalkGnb_kSB8j-38" value="&lt;h1 style=&quot;transition: opacity 0.2s ease-in-out 0s, color 0.2s ease-in-out 0s, text-decoration 0.2s ease-in-out 0s, background-color 0.2s ease-in-out 0s, -webkit-text-decoration 0.2s ease-in-out 0s; font-size: 1.25rem; margin: 0px; quotes: &amp;quot;«&amp;quot; &amp;quot;»&amp;quot;; line-height: 1.625rem; -webkit-font-smoothing: antialiased; font-family: &amp;quot;Fira Sans&amp;quot;, sans-serif; font-weight: 500; padding: 0px; caret-color: rgb(51, 51, 51); color: rgb(51, 51, 51); text-align: start;&quot;&gt;&lt;code style=&quot;transition: opacity 0.2s ease-in-out 0s, color 0.2s ease-in-out 0s, text-decoration 0.2s ease-in-out 0s, background-color 0.2s ease-in-out 0s, -webkit-text-decoration 0.2s ease-in-out 0s; font-family: &amp;quot;Fira Sans&amp;quot;, sans-serif; font-size: 0.9375rem; quotes: &amp;quot;«&amp;quot; &amp;quot;»&amp;quot;; background-color: rgb(247, 247, 247); border-radius: 4px; overflow-wrap: break-word; padding: 3px 6px; -webkit-font-smoothing: antialiased;&quot;&gt;App&lt;/code&gt;&lt;/h1&gt;" style="verticalLabelPosition=middle;verticalAlign=middle;html=1;shape=mxgraph.basic.patternFillRect;fillStyle=diag;step=5;fillStrokeWidth=0.2;fillStrokeColor=#dddddd;sketch=1;curveFitting=1;jiggle=2;perimeterSpacing=0;strokeWidth=1;align=center;horizontal=1;labelPosition=center;" parent="1" vertex="1">
          <mxGeometry x="40" y="40" width="160" height="80" as="geometry" />
        </mxCell>
        <mxCell id="RdmqOYUsalkGnb_kSB8j-39" value="&lt;h1 style=&quot;transition: opacity 0.2s ease-in-out 0s, color 0.2s ease-in-out 0s, text-decoration 0.2s ease-in-out 0s, background-color 0.2s ease-in-out 0s, -webkit-text-decoration 0.2s ease-in-out 0s; font-size: 1.25rem; margin: 0px; quotes: &amp;quot;«&amp;quot; &amp;quot;»&amp;quot;; line-height: 1.625rem; -webkit-font-smoothing: antialiased; font-family: &amp;quot;Fira Sans&amp;quot;, sans-serif; font-weight: 500; padding: 0px; caret-color: rgb(51, 51, 51); color: rgb(51, 51, 51); text-align: start;&quot;&gt;&lt;code style=&quot;transition: opacity 0.2s ease-in-out 0s, color 0.2s ease-in-out 0s, text-decoration 0.2s ease-in-out 0s, background-color 0.2s ease-in-out 0s, -webkit-text-decoration 0.2s ease-in-out 0s; font-family: &amp;quot;Fira Sans&amp;quot;, sans-serif; font-size: 0.9375rem; quotes: &amp;quot;«&amp;quot; &amp;quot;»&amp;quot;; background-color: rgb(247, 247, 247); border-radius: 4px; overflow-wrap: break-word; padding: 3px 6px; -webkit-font-smoothing: antialiased;&quot;&gt;MainFactory&lt;/code&gt;&lt;/h1&gt;" style="verticalLabelPosition=middle;verticalAlign=middle;html=1;shape=mxgraph.basic.patternFillRect;fillStyle=diag;step=5;fillStrokeWidth=0.2;fillStrokeColor=#dddddd;sketch=1;curveFitting=1;jiggle=2;perimeterSpacing=0;strokeWidth=1;align=center;horizontal=1;labelPosition=center;" parent="1" vertex="1">
          <mxGeometry x="480" y="40" width="160" height="80" as="geometry" />
        </mxCell>
        <mxCell id="RdmqOYUsalkGnb_kSB8j-40" style="edgeStyle=orthogonalEdgeStyle;rounded=0;orthogonalLoop=1;jettySize=auto;html=1;entryX=0.5;entryY=0;entryDx=0;entryDy=0;entryPerimeter=0;" parent="1" source="RdmqOYUsalkGnb_kSB8j-39" target="RdmqOYUsalkGnb_kSB8j-1" edge="1">
          <mxGeometry relative="1" as="geometry">
            <Array as="points">
              <mxPoint x="560" y="160" />
              <mxPoint x="160" y="160" />
            </Array>
          </mxGeometry>
        </mxCell>
        <mxCell id="RdmqOYUsalkGnb_kSB8j-41" style="edgeStyle=orthogonalEdgeStyle;rounded=0;orthogonalLoop=1;jettySize=auto;html=1;entryX=0.5;entryY=0;entryDx=0;entryDy=0;entryPerimeter=0;" parent="1" source="RdmqOYUsalkGnb_kSB8j-39" target="RdmqOYUsalkGnb_kSB8j-6" edge="1">
          <mxGeometry relative="1" as="geometry" />
        </mxCell>
        <mxCell id="RdmqOYUsalkGnb_kSB8j-42" style="edgeStyle=orthogonalEdgeStyle;rounded=0;orthogonalLoop=1;jettySize=auto;html=1;entryX=0.5;entryY=0;entryDx=0;entryDy=0;entryPerimeter=0;" parent="1" source="RdmqOYUsalkGnb_kSB8j-39" target="RdmqOYUsalkGnb_kSB8j-7" edge="1">
          <mxGeometry relative="1" as="geometry">
            <Array as="points">
              <mxPoint x="560" y="160" />
              <mxPoint x="680" y="160" />
            </Array>
          </mxGeometry>
        </mxCell>
        <mxCell id="wHCvP6ehTfj_U6pSfZ8X-3" value="" style="edgeStyle=orthogonalEdgeStyle;rounded=0;orthogonalLoop=1;jettySize=auto;html=1;" edge="1" parent="1" source="wHCvP6ehTfj_U6pSfZ8X-1" target="RdmqOYUsalkGnb_kSB8j-39">
          <mxGeometry relative="1" as="geometry" />
        </mxCell>
        <mxCell id="wHCvP6ehTfj_U6pSfZ8X-1" value="&lt;h1 style=&quot;transition: opacity 0.2s ease-in-out 0s, color 0.2s ease-in-out 0s, text-decoration 0.2s ease-in-out 0s, background-color 0.2s ease-in-out 0s, -webkit-text-decoration 0.2s ease-in-out 0s; font-size: 1.25rem; margin: 0px; quotes: &amp;quot;«&amp;quot; &amp;quot;»&amp;quot;; line-height: 1.625rem; -webkit-font-smoothing: antialiased; font-family: &amp;quot;Fira Sans&amp;quot;, sans-serif; font-weight: 500; padding: 0px; caret-color: rgb(51, 51, 51); color: rgb(51, 51, 51); text-align: start;&quot;&gt;&lt;code style=&quot;transition: opacity 0.2s ease-in-out 0s, color 0.2s ease-in-out 0s, text-decoration 0.2s ease-in-out 0s, background-color 0.2s ease-in-out 0s, -webkit-text-decoration 0.2s ease-in-out 0s; font-family: &amp;quot;Fira Sans&amp;quot;, sans-serif; font-size: 0.9375rem; quotes: &amp;quot;«&amp;quot; &amp;quot;»&amp;quot;; background-color: rgb(247, 247, 247); border-radius: 4px; overflow-wrap: break-word; padding: 3px 6px; -webkit-font-smoothing: antialiased;&quot;&gt;MainCoordinator&lt;/code&gt;&lt;/h1&gt;" style="verticalLabelPosition=middle;verticalAlign=middle;html=1;shape=mxgraph.basic.patternFillRect;fillStyle=diag;step=5;fillStrokeWidth=0.2;fillStrokeColor=#dddddd;sketch=1;curveFitting=1;jiggle=2;perimeterSpacing=0;strokeWidth=1;align=center;horizontal=1;labelPosition=center;" vertex="1" parent="1">
          <mxGeometry x="280" y="40" width="160" height="80" as="geometry" />
        </mxCell>
        <mxCell id="wHCvP6ehTfj_U6pSfZ8X-2" style="edgeStyle=orthogonalEdgeStyle;rounded=0;orthogonalLoop=1;jettySize=auto;html=1;" edge="1" parent="1" source="RdmqOYUsalkGnb_kSB8j-38">
          <mxGeometry relative="1" as="geometry">
            <mxPoint x="280" y="80" as="targetPoint" />
          </mxGeometry>
        </mxCell>
      </root>
    </mxGraphModel>
  </diagram>
</mxfile>
